<?xml version="1.0" standalone="no"?>
<!DOCTYPE svg PUBLIC "-//W3C//DTD SVG 20010904//EN"
 "http://www.w3.org/TR/2001/REC-SVG-20010904/DTD/svg10.dtd">
<svg version="1.0" xmlns="http://www.w3.org/2000/svg"
 width="16.000000pt" height="16.000000pt" viewBox="0 0 16.000000 16.000000"
 preserveAspectRatio="xMidYMid meet">

<g transform="translate(0.000000,16.000000) scale(0.100000,-0.100000)"
fill="#000000" stroke="none">
<path d="M4 147 c-3 -8 -4 -43 -2 -78 l3 -64 75 0 75 0 0 75 0 75 -73 3 c-55
2 -74 -1 -78 -11z m70 -52 c7 -19 -3 -45 -16 -45 -6 0 -5 6 2 15 6 8 9 19 5
25 -11 18 -24 11 -28 -17 -4 -26 -4 -26 -6 5 -1 25 3 32 18 32 10 0 21 -7 25
-15z m42 -18 c1 -16 -2 -23 -6 -17 -6 9 -9 9 -13 -1 -3 -8 -6 0 -6 17 -1 18 4
31 12 31 6 0 12 -13 13 -30z"/>
</g>
</svg>
